<?xml version="1.0" encoding="UTF-8"?>
<svg id="a" data-name="Layer 1" xmlns="http://www.w3.org/2000/svg" viewBox="0 0 1930.41 1328.48">
  <path d="m1927.01,560.72c-12.52-126.83-55.92-239.67-129.02-335.36-71.59-93.59-169.47-167.85-290.93-220.68l-6.74-2.91c-2.71-1.17-5.63-1.77-8.58-1.77h-511.19c-8.76,0-16.66,5.29-20,13.39l-241.59,586.38c-7.35,17.84-32.61,17.86-39.99.03l-135.04-326.27L436.1,13.35c-3.35-8.08-11.24-13.35-19.98-13.35H21.65C6.26,0-4.2,15.62,1.64,29.85l518.08,1261.33c7.35,17.88,32.67,17.88,40.02,0L1037.97,126.96c3.33-8.11,11.24-13.41,20.01-13.41h409.75c3.11,0,6.2.66,9.03,1.96,200.27,92.09,316.86,249.79,337.27,456.39,25.84,261.87-121.23,530.33-350.29,640.91-2.92,1.41-6.14,2.12-9.39,2.12-86.6-.04-130.34-.35-185.36-.74l-22.17-.14c-25.75-.17-54.98-.37-92.06-.54-74.6-.34-134.64.14-192.71.62-46.7.4-99.61.85-162.71.82h-3.55c-8.71,0-16.58,5.23-19.95,13.27l-29.46,70.25c-5.98,14.25,4.49,30,19.95,30h8.04c61.34,0,114.06-.4,165.07-.79l5.31-.03c67.59-.51,131.4-.99,209.46-.6,35.8.17,64.55.37,89.9.54l24.1.14c62.45.43,107.58.74,203.5.74h7.53c3.04,0,6.05-.64,8.83-1.89l6.83-3.05c83.46-37.36,154.05-97.42,210.51-159.64,56.46-62.22,98.78-126.63,125.75-172.65,64.95-110.93,99.27-235.86,99.27-361.27,0-23.13-1.14-46.44-3.41-69.26Zm-1407.26,422.45L173.9,146.39c-5.89-14.24,4.58-29.89,19.99-29.89h143.71c8.74,0,16.63,5.26,19.98,13.34l274.63,661.36c2.2,5.3,2.21,11.26.01,16.56l-72.5,175.41c-7.37,17.83-32.62,17.83-39.98,0Z" style="fill:rgb(0, 0, 0); stroke-width: 0px;"/>
  <g>
    <path d="m1578.68,436.61l35.28,62.34c-9.76-21.23-21.57-42.07-35.28-62.34Zm43.23,80.7l5.45,14.34c-1.67-4.8-3.52-9.57-5.45-14.34Zm17.74,55.75c1.08,4.68,2.1,9.37,3.04,14.08-.94-4.71-1.93-9.37-3.04-14.08Zm7.3,42.32l2.04,42.41c.23-14.08-.45-28.24-2.04-42.41Z" style="fill:rgb(0, 0, 0); stroke-width: 0px;"/>
    <path d="m1646.98,616.12c-.02-.49-.06-.98-.12-1.46-.5-4.47-1.09-8.91-1.77-13.41-.71-4.68-1.53-9.4-2.41-14.11-.9-4.51-1.87-9-2.9-13.48-.09-.4-.19-.8-.31-1.19l-9.85-34.38c-.6-1.79-1.22-3.63-1.87-5.42-.11-.34-.26-.68-.4-1.02l-5.45-14.34c-.91-2.3-1.84-4.6-2.84-6.87l-4.68-10.54c-.28-.64-.6-1.26-.94-1.87l-34.3-60.59c-.31-.55-.65-1.09-1.01-1.62-40.93-60.09-98.56-113.71-162.32-151.05l-10.5-6.15c-3.22-1.89-6.88-2.91-10.62-2.96l-222.72-3.25c-8.95-.13-17.05,5.26-20.39,13.57l-292.04,727.12c-5.66,14.09,4.58,29.48,19.77,29.69l514.75,7.3,1.5.03,15.64-8.57c62.56-34.18,120.81-89.7,164.02-156.32,46.3-71.31,71.79-148.66,73.66-223.71.03-1.25.09-2.47.09-3.72l-2.01-41.68Zm-133.79,41.96c-2.33,91.69-63.55,196.21-146.73,251.94-3.68,2.46-8.01,3.77-12.43,3.7l-275.78-3.91c-15.21-.22-25.45-15.64-19.75-29.74l184.75-457c3.35-8.28,11.44-13.65,20.37-13.52l91.75,1.34c4.25.06,8.39,1.37,11.9,3.77,70.5,48.15,148.58,138.74,145.92,243.43Z" style="fill:rgb(0, 0, 0); stroke-width: 0px;"/>
  </g>
</svg>